<svg width="90" height="90" viewBox="0 0 90 90" fill="none" xmlns="http://www.w3.org/2000/svg">
<g id="Cog">
<g id="Group 1">
<path id="Ellipse 1" d="M78.5354 53.5335C80.0741 45.7905 78.4988 37.7531 74.151 31.1639C69.8033 24.5746 63.0334 19.9647 55.3094 18.3336C47.5854 16.7024 39.5297 18.1815 32.889 22.4503C26.2482 26.719 21.5577 33.4332 19.8344 41.1372C18.111 48.8411 19.4937 56.9139 23.6828 63.6052C27.8718 70.2965 34.5295 75.0669 42.2123 76.8823C49.8951 78.6976 57.9839 77.4114 64.7247 73.3027C71.4656 69.1939 76.3153 62.5938 78.2223 54.9332L62.4078 50.9963C61.5367 54.4954 59.3216 57.5101 56.2426 59.3868C53.1637 61.2635 49.4691 61.8509 45.9598 61.0218C42.4506 60.1926 39.4097 58.0137 37.4963 54.9574C35.5829 51.901 34.9514 48.2137 35.7385 44.6949C36.5257 41.176 38.6681 38.1092 41.7013 36.1594C44.7346 34.2097 48.4141 33.5341 51.9421 34.2791C55.4701 35.0241 58.5623 37.1298 60.5482 40.1395C62.5341 43.1492 63.2536 46.8203 62.5508 50.357L78.5354 53.5335Z" fill="#C4C4C4"/>
<path id="Rectangle 1" d="M41.2971 12.4204L56.6978 12.4204L59.1054 22.952H39.1162L41.2971 12.4204Z" fill="#C4C4C4"/>
<path id="Rectangle 2" d="M16.9974 26.3033L28.8086 16.4201L37.4136 22.952L22.0834 35.7798L16.9974 26.3033Z" fill="#C4C4C4"/>
<path id="Rectangle 4" d="M30.8517 81.8789L20.029 70.9222L25.8297 61.8082L39.877 76.0294L30.8517 81.8789Z" fill="#C4C4C4"/>
<path id="Rectangle 5" d="M10.9839 57.3622L10.902 41.9617L21.4207 39.4981L21.527 59.487L10.9839 57.3622Z" fill="#C4C4C4"/>
</g>
</g>
</svg>
