<svg width="1032" height="97" viewBox="0 0 1032 97" fill="none" xmlns="http://www.w3.org/2000/svg">
<g id="Mountains" clip-path="url(#clip0)">
<g id="Back">
<path d="M1010.58 42.2684L970.037 -26.2153L1029.76 -28.2886L1010.58 42.2684Z" fill="#D5D5D5"/>
<path d="M941.681 50.9302L888.274 -47.524L1024.24 -32.0735L941.681 50.9302Z" fill="#D5D5D5"/>
<path d="M795.756 60.2662L796.524 -45.8962L855.898 -39.1495L795.756 60.2662Z" fill="#D5D5D5"/>
<path d="M897.223 53.2349L858.674 -33.2038L954.182 -22.3512L897.223 53.2349Z" fill="#D5D5D5"/>
<path d="M864.652 59.7874L813.841 -23.343L893.385 -33.3085L864.652 59.7874Z" fill="#D5D5D5"/>
<path d="M772.983 55.4384L737.02 -25.5354L817.186 -25.3321L772.983 55.4384Z" fill="#D5D5D5"/>
<path d="M731.284 49.1323L685.712 -36.7755L765.878 -36.5722L731.284 49.1323Z" fill="#D5D5D5"/>
<path d="M692.734 31.1788L652.882 -60.1358L733.048 -59.9325L692.734 31.1788Z" fill="#D5D5D5"/>
<path d="M756.322 38.0315L716.47 -53.2832L796.636 -53.0798L756.322 38.0315Z" fill="#D5D5D5"/>
<path d="M645.189 65.4936L610.324 -18.1976L690.49 -17.9943L645.189 65.4936Z" fill="#D5D5D5"/>
<path d="M674.782 64.4662L648.215 -17.9815L707.935 -20.0549L674.782 64.4662Z" fill="#D5D5D5"/>
<path d="M612.804 53.2456L566.452 -39.2902L702.423 -23.8398L612.804 53.2456Z" fill="#D5D5D5"/>
<path d="M492.102 57.4361L474.702 -37.6624L534.076 -30.9157L492.102 57.4361Z" fill="#D5D5D5"/>
<path d="M575.401 61.4687L536.853 -24.97L632.36 -14.1174L575.401 61.4687Z" fill="#D5D5D5"/>
<path d="M537.405 64.9658L486.727 2.03798L566.271 -7.92756L537.405 64.9658Z" fill="#D5D5D5"/>
<path d="M455.05 74.0129L415.198 -17.3017L495.364 -17.0984L455.05 74.0129Z" fill="#D5D5D5"/>
<path d="M403.742 62.7729L363.891 -28.5418L444.056 -28.3384L403.742 62.7729Z" fill="#D5D5D5"/>
<path d="M370.912 39.4125L331.06 -51.9021L411.226 -51.6988L370.912 39.4125Z" fill="#D5D5D5"/>
<path d="M434.5 46.2652L394.649 -45.0494L474.814 -44.8461L434.5 46.2652Z" fill="#D5D5D5"/>
<path d="M328.354 81.3507L288.502 -9.9639L368.668 -9.76057L328.354 81.3507Z" fill="#D5D5D5"/>
<path d="M371.716 69.3695L339.41 -0.0514981L399.13 -2.12483L371.716 69.3695Z" fill="#D5D5D5"/>
<path d="M311.054 77.094L257.647 -21.3602L393.617 -5.90978L311.054 77.094Z" fill="#D5D5D5"/>
<path d="M183.297 75.3661L165.897 -19.7324L225.27 -12.9857L183.297 75.3661Z" fill="#D5D5D5"/>
<path d="M266.595 79.3987L228.047 -7.04002L323.555 3.81258L266.595 79.3987Z" fill="#D5D5D5"/>
<path d="M234.025 85.9511L183.214 2.82076L262.758 -7.14478L234.025 85.9511Z" fill="#D5D5D5"/>
<path d="M146.245 91.9429L106.393 0.628314L186.559 0.831645L146.245 91.9429Z" fill="#D5D5D5"/>
<path d="M94.9367 80.7029L55.085 -10.6118L135.251 -10.4084L94.9367 80.7029Z" fill="#D5D5D5"/>
<path d="M62.1064 57.3425L22.2547 -33.9721L102.421 -33.7688L62.1064 57.3425Z" fill="#D5D5D5"/>
<path d="M125.695 64.1952L85.843 -27.1194L166.009 -26.9161L125.695 64.1952Z" fill="#D5D5D5"/>
<path d="M22.2548 80.7029L-20.3036 7.96612L59.8622 8.16946L22.2548 80.7029Z" fill="#D5D5D5"/>
</g>
<g id="Front">
<path d="M1015.34 42.7546L983.029 -26.6662L1042.75 -28.7396L1015.34 42.7546Z" fill="#4BBEFF"/>
<path d="M954.673 50.4792L901.266 -47.975L1037.24 -32.5245L954.673 50.4792Z" fill="#4BBEFF"/>
<path d="M826.916 48.7513L809.516 -46.3472L868.89 -39.6005L826.916 48.7513Z" fill="#4BBEFF"/>
<path d="M910.215 52.7839L871.667 -33.6548L967.174 -22.8022L910.215 52.7839Z" fill="#4BBEFF"/>
<path d="M877.645 59.3363L826.833 -23.794L906.378 -33.7595L877.645 59.3363Z" fill="#4BBEFF"/>
<path d="M789.864 65.3281L750.012 -25.9864L830.178 -25.7831L789.864 65.3281Z" fill="#4BBEFF"/>
<path d="M738.556 54.088L698.705 -37.2265L778.87 -37.0232L738.556 54.088Z" fill="#4BBEFF"/>
<path d="M705.726 30.7277L665.874 -60.5869L746.04 -60.3836L705.726 30.7277Z" fill="#4BBEFF"/>
<path d="M769.314 37.5804L729.463 -53.7342L809.628 -53.5308L769.314 37.5804Z" fill="#4BBEFF"/>
<path d="M663.167 72.6659L623.316 -18.6486L703.482 -18.4453L663.167 72.6659Z" fill="#4BBEFF"/>
<path d="M693.514 50.9884L661.208 -18.4325L720.927 -20.5058L693.514 50.9884Z" fill="#4BBEFF"/>
<path d="M632.852 58.7129L579.444 -39.7412L715.415 -24.2908L632.852 58.7129Z" fill="#4BBEFF"/>
<path d="M505.095 56.9851L487.694 -38.1134L547.068 -31.3667L505.095 56.9851Z" fill="#4BBEFF"/>
<path d="M588.393 61.0176L549.845 -25.421L645.352 -14.5684L588.393 61.0176Z" fill="#4BBEFF"/>
<path d="M550.545 68.7794L505.012 -15.5602L584.556 -25.5258L550.545 68.7794Z" fill="#4BBEFF"/>
<path d="M468.042 73.5619L428.191 -17.7527L508.357 -17.5494L468.042 73.5619Z" fill="#4BBEFF"/>
<path d="M416.734 62.3218L376.883 -28.9928L457.049 -28.7894L416.734 62.3218Z" fill="#4BBEFF"/>
<path d="M383.904 38.9614L344.052 -52.3531L424.218 -52.1498L383.904 38.9614Z" fill="#4BBEFF"/>
<path d="M447.492 45.8141L407.641 -45.5004L487.807 -45.2971L447.492 45.8141Z" fill="#4BBEFF"/>
<path d="M341.346 80.8997L301.494 -10.4149L381.66 -10.2116L341.346 80.8997Z" fill="#4BBEFF"/>
<path d="M384.708 68.9184L352.402 -0.502487L412.122 -2.57582L384.708 68.9184Z" fill="#4BBEFF"/>
<path d="M324.046 76.6429L270.639 -21.8112L406.609 -6.36076L324.046 76.6429Z" fill="#4BBEFF"/>
<path d="M196.289 74.9151L178.889 -20.1834L238.262 -13.4367L196.289 74.9151Z" fill="#4BBEFF"/>
<path d="M279.588 78.9476L241.039 -7.49101L336.547 3.36159L279.588 78.9476Z" fill="#4BBEFF"/>
<path d="M247.017 85.5001L196.206 2.36977L275.75 -7.59576L247.017 85.5001Z" fill="#4BBEFF"/>
<path d="M159.237 91.4919L119.385 0.177325L199.551 0.380656L159.237 91.4919Z" fill="#4BBEFF"/>
<path d="M107.929 80.2518L68.0772 -11.0628L148.243 -10.8594L107.929 80.2518Z" fill="#4BBEFF"/>
<path d="M75.0985 56.8914L35.2469 -34.4231L115.413 -34.2198L75.0985 56.8914Z" fill="#4BBEFF"/>
<path d="M138.687 63.7441L98.8352 -27.5704L179.001 -27.3671L138.687 63.7441Z" fill="#4BBEFF"/>
<path d="M29.8151 84.7505L-10.0365 -6.5641L70.1293 -6.36076L29.8151 84.7505Z" fill="#4BBEFF"/>
</g>
</g>
<defs>
<clipPath id="clip0">
<rect width="1032" height="97" fill="white"/>
</clipPath>
</defs>
</svg>
